<svg xmlns="http://www.w3.org/2000/svg" viewBox="0 0 128 128" fill="none">
  <!-- Background circle -->
  <circle cx="64" cy="64" r="60" fill="#1a1a2e"/>
  <!-- Tux body -->
  <ellipse cx="64" cy="78" rx="28" ry="32" fill="#2d2d44"/>
  <!-- Tux belly -->
  <ellipse cx="64" cy="82" rx="20" ry="24" fill="#e8e8f0"/>
  <!-- Head -->
  <circle cx="64" cy="42" r="20" fill="#2d2d44"/>
  <!-- Eyes -->
  <ellipse cx="56" cy="38" rx="5" ry="6" fill="white"/>
  <ellipse cx="72" cy="38" rx="5" ry="6" fill="white"/>
  <circle cx="57" cy="37" r="2.5" fill="#1a1a2e"/>
  <circle cx="73" cy="37" r="2.5" fill="#1a1a2e"/>
  <!-- Beak -->
  <path d="M58 46 Q64 54 70 46 Q64 50 58 46Z" fill="#f0a030"/>
  <!-- Feet -->
  <ellipse cx="52" cy="110" rx="12" ry="4" fill="#f0a030"/>
  <ellipse cx="76" cy="110" rx="12" ry="4" fill="#f0a030"/>
  <!-- Terminal prompt overlay -->
  <rect x="42" y="72" rx="3" width="44" height="20" fill="#0d1117" opacity="0.85"/>
  <text x="46" y="85" font-family="monospace" font-size="10" fill="#58d68d">$_</text>
  <text x="58" y="85" font-family="monospace" font-size="9" fill="#89b4fa">make</text>
  <!-- Circuit lines decoration -->
  <line x1="16" y1="30" x2="28" y2="30" stroke="#89b4fa" stroke-width="1.5" opacity="0.5"/>
  <circle cx="28" cy="30" r="2" fill="#89b4fa" opacity="0.5"/>
  <line x1="100" y1="30" x2="112" y2="30" stroke="#a6e3a1" stroke-width="1.5" opacity="0.5"/>
  <circle cx="100" cy="30" r="2" fill="#a6e3a1" opacity="0.5"/>
  <line x1="16" y1="100" x2="28" y2="100" stroke="#f9e2af" stroke-width="1.5" opacity="0.5"/>
  <circle cx="28" cy="100" r="2" fill="#f9e2af" opacity="0.5"/>
  <line x1="100" y1="100" x2="112" y2="100" stroke="#f38ba8" stroke-width="1.5" opacity="0.5"/>
  <circle cx="100" cy="100" r="2" fill="#f38ba8" opacity="0.5"/>
</svg>
