<svg xmlns="http://www.w3.org/2000/svg" width="64" height="64" viewBox="0 0 64 64">
  <defs>
    <linearGradient id="gear-grad" x1="0%" y1="0%" x2="100%" y2="100%">
      <stop offset="0%" style="stop-color:#78909C"/>
      <stop offset="100%" style="stop-color:#546E7A"/>
    </linearGradient>
  </defs>
  <path d="M32 8 L36 8 L38 14 L44 16 L50 12 L54 16 L50 22 L52 28 L58 30 L58 34 L52 36 L50 42 L54 48 L50 52 L44 48 L38 50 L36 56 L32 56 L30 50 L24 48 L18 52 L14 48 L18 42 L16 36 L10 34 L10 30 L16 28 L18 22 L14 16 L18 12 L24 16 L30 14 Z" 
        fill="url(#gear-grad)"/>
  <circle cx="34" cy="32" r="10" fill="#ECEFF1"/>
  <circle cx="34" cy="32" r="6" fill="url(#gear-grad)"/>
</svg>
